<svg xmlns="http://www.w3.org/2000/svg" viewBox="0 0 512 512" width="512" height="512">
  <defs>
    <linearGradient id="bg" x1="0" y1="0" x2="1" y2="1">
      <stop offset="0" stop-color="#3aa76b"/>
      <stop offset="1" stop-color="#25714a"/>
    </linearGradient>
    <linearGradient id="tag" x1="0" y1="0" x2="1" y2="1">
      <stop offset="0" stop-color="#f4a45f"/>
      <stop offset="1" stop-color="#d8722f"/>
    </linearGradient>
  </defs>

  <rect width="512" height="512" rx="114" fill="url(#bg)"/>

  <!-- shopping basket -->
  <g fill="none" stroke="#ffffff" stroke-width="26" stroke-linecap="round" stroke-linejoin="round">
    <path d="M170 168V139a86 86 0 0 1 172 0v29"/>
    <path d="M124 186h264l-22 174a34 34 0 0 1-34 30H180a34 34 0 0 1-34-30z"/>
  </g>

  <!-- price tag badge -->
  <g transform="translate(268 250)">
    <path d="M0 22A22 22 0 0 1 22 0h74a22 22 0 0 1 15.6 6.4l54 54a22 22 0 0 1 0 31.2l-74 74a22 22 0 0 1-31.2 0l-54-54A22 22 0 0 1 0 96z"
          fill="url(#tag)" stroke="#ffffff" stroke-width="16" stroke-linejoin="round"/>
    <circle cx="40" cy="40" r="14" fill="#ffffff"/>
  </g>
</svg>
